<svg width="166" height="166" viewBox="0 0 166 166" fill="none" xmlns="http://www.w3.org/2000/svg">
<path d="M55.7539 34.7267L55.3212 34.9765L55.8175 44.0488L63.3627 39.6927L55.7539 34.7267ZM65.6208 38.3889L72.598 34.3606L65.0028 29.3868L58.0256 33.4151L65.6208 38.3889ZM73.4313 36.5535L61.7621 43.2907L69.7513 57.1285L73.4313 36.5535ZM67.7231 58.2995L59.7338 44.4617L48.0646 51.199L67.7231 58.2995ZM53.5594 45.3526L53.0496 36.288L46.0724 40.3163L46.5822 49.3809L53.5594 45.3526Z" fill="#6361EB"/>
<path d="M77.5395 42.875C77.3424 41.3899 78.3866 40.0171 79.8812 39.9146C88.7932 39.3033 97.6989 41.5006 105.328 46.2337C113.728 51.4448 120.061 59.4072 123.249 68.7642C126.436 78.1212 126.28 88.2938 122.808 97.5489C119.336 106.804 112.762 114.569 104.206 119.52C95.6511 124.472 85.6435 126.304 75.8889 124.704C66.1343 123.104 57.2362 118.171 50.7107 110.746C44.1853 103.321 40.4362 93.8632 40.1024 83.9839C39.7991 75.0107 42.3304 66.1941 47.3001 58.7713C48.1335 57.5264 49.844 57.3048 51.0335 58.2156C52.2231 59.1263 52.4398 60.8241 51.6179 62.0766C47.405 68.4966 45.2636 76.0822 45.5245 83.8007C45.8159 92.4255 49.0889 100.683 54.7858 107.165C60.4827 113.647 68.251 117.953 76.767 119.35C85.283 120.747 94.0199 119.148 101.489 114.825C108.958 110.502 114.697 103.723 117.728 95.6432C120.76 87.5633 120.896 78.6823 118.113 70.5135C115.33 62.3446 109.802 55.3932 102.468 50.8439C95.9057 46.7726 88.2616 44.8504 80.5962 45.3051C79.1007 45.3938 77.7366 44.3601 77.5395 42.875Z" fill="#6361EB"/>
</svg>
